<svg width="32" height="32" viewBox="0 0 32 32" fill="none" xmlns="http://www.w3.org/2000/svg">
<rect width="32" height="32" rx="4" fill="#B9FF66"/>
<path d="M15.792 25.24C14.432 25.24 13.264 25.008 12.288 24.544C11.328 24.08 10.456 23.384 9.67197 22.456L11.832 20.296C12.328 20.952 12.904 21.464 13.56 21.832C14.216 22.184 15.016 22.36 15.96 22.36C16.808 22.36 17.48 22.192 17.976 21.856C18.488 21.52 18.744 21.056 18.744 20.464C18.744 19.952 18.6 19.536 18.312 19.216C18.024 18.896 17.64 18.624 17.16 18.4C16.696 18.176 16.176 17.976 15.6 17.8C15.04 17.608 14.472 17.392 13.896 17.152C13.336 16.912 12.816 16.616 12.336 16.264C11.872 15.896 11.496 15.432 11.208 14.872C10.92 14.296 10.776 13.576 10.776 12.712C10.776 11.688 11.024 10.816 11.52 10.096C12.016 9.376 12.696 8.824 13.56 8.44C14.424 8.056 15.4 7.864 16.488 7.864C17.64 7.864 18.68 8.08 19.608 8.512C20.536 8.944 21.296 9.504 21.888 10.192L19.728 12.352C19.232 11.808 18.72 11.408 18.192 11.152C17.68 10.896 17.096 10.768 16.44 10.768C15.688 10.768 15.096 10.912 14.664 11.2C14.232 11.488 14.016 11.904 14.016 12.448C14.016 12.912 14.16 13.288 14.448 13.576C14.736 13.864 15.112 14.112 15.576 14.32C16.056 14.528 16.576 14.728 17.136 14.92C17.712 15.112 18.28 15.328 18.84 15.568C19.416 15.808 19.936 16.12 20.4 16.504C20.88 16.888 21.264 17.384 21.552 17.992C21.84 18.584 21.984 19.32 21.984 20.2C21.984 21.768 21.432 23 20.328 23.896C19.224 24.792 17.712 25.24 15.792 25.24Z" fill="white"/>
</svg>
